<?xml version="1.0" encoding="UTF-8"?>
<svg width="10px" height="12px" viewBox="0 0 10 12" version="1.1" xmlns="http://www.w3.org/2000/svg" xmlns:xlink="http://www.w3.org/1999/xlink">
    <!-- Generator: Sketch 63.1 (92452) - https://sketch.com -->
    <title>cms-icon</title>
    <desc>Created with Sketch.</desc>
    <g id="Home" stroke="none" stroke-width="1" fill="none" fill-rule="evenodd">
        <g id="Homepage-(1560px)" transform="translate(-166.000000, -1167.000000)" fill="#A6A6A6">
            <g id="Templates" transform="translate(140.000000, 608.000000)">
                <g id="Template-Copy-31" transform="translate(0.000000, 94.000000)">
                    <g id="Template">
                        <path d="M31,471.25662 C29.56207,471.25662 28.19694,471.048 27.15763,470.66585 C26.74631,470.52422 26.35663,470.32474 26,470.07323 L26,471.48554 C26,472.49446 28.23881,473.3132 31,473.3132 C33.7612,473.3132 36,472.49538 36,471.48554 L36,470.07323 C35.6426,470.32363 35.2531,470.52332 34.8424,470.66677 C33.8021,471.04708 32.43793,471.25477 31,471.25477 L31,471.25662 Z M31,474.9471 C29.56207,474.9471 28.19694,474.7385 27.15763,474.3563 C26.69712,474.1883 26.30852,473.9908 26,473.7655 L26,475.1723 C26,476.1812 28.23881,477 31,477 C33.7612,477 36,476.1812 36,475.1723 L36,473.7655 C35.6424,474.015 35.253,474.2137 34.8424,474.3563 C33.8021,474.7394 32.43793,474.9471 31,474.9471 L31,474.9471 Z M31,465 C28.2379,465 26,465.81877 26,466.82769 L26,467.80154 C26,468.81138 28.23881,469.62738 31,469.62738 C33.7612,469.62738 36,468.81231 36,467.80154 L36,466.82769 C36,465.81877 33.7612,465 31,465 Z" id="cms-icon"></path>
                    </g>
                </g>
            </g>
        </g>
    </g>
</svg>