<svg id="Layer_1" data-name="Layer 1" xmlns="http://www.w3.org/2000/svg" viewBox="0 0 24 24"><title>24-youtube-black</title><path d="M10,15V9l6,3ZM20.82,8.59A3.58,3.58,0,0,0,20.1,6.9a2.65,2.65,0,0,0-1.8-.72C15.78,6,12,6,12,6h0s-3.78,0-6.3.17a2.65,2.65,0,0,0-1.8.72,3.58,3.58,0,0,0-.72,1.69A24.48,24.48,0,0,0,3,11.35v1.29a24.48,24.48,0,0,0,.18,2.76A3.58,3.58,0,0,0,3.9,17.1a3.15,3.15,0,0,0,2,.73C7.32,18,12,18,12,18s3.78,0,6.3-.18a2.65,2.65,0,0,0,1.8-.72,3.58,3.58,0,0,0,.72-1.69A24.51,24.51,0,0,0,21,12.64V11.35a24.52,24.52,0,0,0-.18-2.76Z"/></svg>