<svg xmlns="http://www.w3.org/2000/svg" viewBox="0 0 18.49 18.49"><defs><style>.cls-1{fill:#a6a6a6;}.cls-2{fill:#fff;}</style></defs><g id="Layer_2" data-name="Layer 2"><g id="Layer_1-2" data-name="Layer 1"><rect class="cls-1" width="18.49" height="18.49"/><path class="cls-2" d="M5.18,4v6a2.41,2.41,0,0,0,.47,1.59A1.68,1.68,0,0,0,7,12.13a1.69,1.69,0,0,0,1.36-.54A2.41,2.41,0,0,0,8.82,10V4h2.54v6a5.05,5.05,0,0,1-.58,2.5A3.79,3.79,0,0,1,9.2,14a4.88,4.88,0,0,1-2.26.51A4.84,4.84,0,0,1,4.72,14,3.65,3.65,0,0,1,3.21,12.5,5.28,5.28,0,0,1,2.67,10V4Z"/><path class="cls-2" d="M13.22,4.35A1.58,1.58,0,0,1,14.32,4a1.55,1.55,0,0,1,1.09.37,1.24,1.24,0,0,1,.42,1,1.22,1.22,0,0,1-.42.94,1.55,1.55,0,0,1-1.09.38,1.58,1.58,0,0,1-1.1-.38,1.24,1.24,0,0,1-.41-.94A1.27,1.27,0,0,1,13.22,4.35Zm2.36,3.79v6.29H13V8.14Z"/></g></g></svg>