<svg id="Layer_1" data-name="Layer 1" xmlns="http://www.w3.org/2000/svg" xmlns:xlink="http://www.w3.org/1999/xlink" viewBox="0 0 26 26"><defs><style>.cls-1{clip-rule:evenodd;}.cls-2{fill-rule:evenodd;}.cls-3{clip-path:url(#clip-path);}</style><clipPath id="clip-path"><polygon class="cls-1" points="-1.15 102.1 -7 97.18 -7 101.15 -23.15 101.15 -23.15 103.08 -7 103.08 -7 107 -1.15 102.1"/></clipPath></defs><title>26-close-icon-black</title><polygon points="22.71 4.71 21.29 3.29 13 11.59 4.71 3.29 3.29 4.71 11.59 13 3.29 21.29 4.71 22.71 13 14.41 21.29 22.71 22.71 21.29 14.41 13 22.71 4.71"/><polygon class="cls-2" points="-1.15 102.1 -7 97.18 -7 101.15 -23.15 101.15 -23.15 103.08 -7 103.08 -7 107 -1.15 102.1"/><g class="cls-3"><rect x="-1200.15" y="-5978.82" width="1440" height="8007"/></g></svg>